<svg width="43" height="43" viewBox="0 0 43 43" fill="none" xmlns="http://www.w3.org/2000/svg">
<path d="M27.6264 11.4398C28.025 11.4398 28.3547 11.5778 28.6154 11.8538C28.8914 12.1145 29.0294 12.4288 29.0294 12.7968C29.0294 13.0115 28.9911 13.1955 28.9144 13.3488L21.4394 29.8168C21.3014 30.1235 21.1174 30.3458 20.8874 30.4838C20.6574 30.6371 20.4121 30.7138 20.1514 30.7138C19.9367 30.7138 19.7297 30.6295 19.5304 30.4608C19.3311 30.3075 19.1624 30.0851 19.0244 29.7938L11.6874 13.2108C11.6107 13.0575 11.5724 12.8735 11.5724 12.6588C11.5724 12.2448 11.7027 11.9228 11.9634 11.6928C12.2394 11.4475 12.5767 11.3248 12.9754 11.3248C13.282 11.3248 13.558 11.4091 13.8034 11.5778C14.064 11.7311 14.2557 11.9381 14.3784 12.1988L16.9774 18.2018L20.0134 25.2398L20.2434 25.9068L20.4734 25.2628L26.3384 12.1068C26.4457 11.8768 26.5991 11.7081 26.7984 11.6008C27.0131 11.4935 27.2891 11.4398 27.6264 11.4398Z" fill="#8479FF"/>
<path d="M19.7998 0.299805C30.5694 0.299805 39.2998 9.03025 39.2998 19.7998C39.2998 20.0533 39.2928 20.3055 39.2832 20.5566C38.1983 20.1371 36.9734 20.0657 35.7861 20.4316C35.7943 20.222 35.7998 20.0114 35.7998 19.7998C35.7998 10.9632 28.6364 3.7998 19.7998 3.7998C10.9632 3.7998 3.7998 10.9632 3.7998 19.7998C3.7998 28.6364 10.9632 35.7998 19.7998 35.7998C21.655 35.7998 23.4358 35.4821 25.0928 34.9014C24.9731 36.109 25.23 37.3144 25.7939 38.3594C23.9053 38.9689 21.8913 39.2998 19.7998 39.2998C9.03025 39.2998 0.299805 30.5694 0.299805 19.7998C0.299805 9.03025 9.03025 0.299805 19.7998 0.299805Z" fill="#8479FF"/>
<path d="M38.4631 37.9528C38.4631 38.8438 38.5171 39.9238 38.5441 41.1388C38.5441 41.1658 38.5441 41.1658 38.5441 41.1928C38.5441 42.1378 37.8421 42.5698 37.1131 42.5698C36.3841 42.5698 35.6281 42.1108 35.6281 41.1388C35.6281 40.1938 35.6551 39.0868 35.6551 37.9798C33.0361 38.0068 30.2551 38.0068 29.9851 38.0068C28.1761 38.0068 27.2581 37.1158 27.2581 35.9278C27.2581 35.3068 27.5011 34.5778 28.0141 33.8488C29.6341 31.5538 34.0891 25.3168 36.0331 22.6168C36.3301 22.1848 36.7351 22.0228 37.1401 22.0228C37.9501 22.0228 38.7331 22.6978 38.7331 23.5618C38.7331 23.8858 38.6251 24.2368 38.3551 24.5878C30.4441 34.8748 30.4441 34.9018 30.4441 35.0908C30.4441 35.4148 30.8761 35.4148 31.5511 35.4148C32.4691 35.4148 34.0891 35.3608 35.6821 35.3338C35.7091 34.2538 35.7091 33.2278 35.7091 32.4178C35.7091 31.8238 35.7091 31.3378 35.6821 30.9868C35.6821 30.9598 35.6821 30.9058 35.6821 30.8788C35.6821 29.9338 36.4111 29.4208 37.1401 29.4208C37.8421 29.4208 38.5441 29.9068 38.5441 30.9598C38.5441 32.2288 38.4631 33.2548 38.4631 35.2528C39.4621 35.2258 40.1911 35.1988 40.3261 35.1988C40.3531 35.1988 40.3801 35.1988 40.4071 35.1988C41.2981 35.1988 41.7841 35.8468 41.7841 36.5218C41.7841 37.1968 41.2711 37.8988 40.2181 37.9258C39.8941 37.9258 39.2461 37.9528 38.4631 37.9528Z" fill="#8479FF"/>
<path d="M38.7331 23.5618C38.7331 22.6978 37.9501 22.0228 37.1401 22.0228C36.7351 22.0228 36.3301 22.1848 36.0331 22.6168C34.0891 25.3168 29.6341 31.5538 28.0141 33.8488C27.5011 34.5778 27.2581 35.3068 27.2581 35.9278C27.2581 37.0415 28.0649 37.8938 29.6562 37.9961L29.9851 38.0068C30.2567 38.0068 33.037 38.0068 35.6551 37.9798C35.6551 39.0868 35.6281 40.1938 35.6281 41.1388C35.6281 42.0502 36.2927 42.5106 36.9766 42.5645L37.1131 42.5698C37.8421 42.5698 38.5441 42.1378 38.5441 41.1928V41.1388C38.5171 39.9238 38.4631 38.8438 38.4631 37.9528C39.2461 37.9528 39.8941 37.9258 40.2181 37.9258C41.2053 37.9005 41.7181 37.2819 41.7783 36.6484L41.7841 36.5218C41.7839 35.8891 41.3568 35.2797 40.5693 35.2061L40.4071 35.1988L40.4072 34.8984C41.4794 34.8985 42.0838 35.6971 42.084 36.5215C42.084 37.3627 41.4377 38.1945 40.2256 38.2256H40.2178C40.0603 38.2256 39.8233 38.2324 39.5195 38.2393C39.2972 38.2443 39.0425 38.2458 38.7656 38.248C38.7752 39.0734 38.8194 40.0367 38.8438 41.1318V41.1924C38.8438 41.7464 38.6346 42.1776 38.2959 42.4648C37.9645 42.7458 37.5333 42.8701 37.1133 42.8701C36.6896 42.8701 36.2458 42.7371 35.9033 42.4482C35.5538 42.1534 35.3281 41.7104 35.3281 41.1387C35.3281 40.6639 35.3351 40.1488 35.3418 39.6162C35.3473 39.1801 35.3507 38.7317 35.3525 38.2812C32.8262 38.3052 30.2465 38.3066 29.9854 38.3066C29.0349 38.3066 28.2785 38.0729 27.7539 37.6455C27.2231 37.213 26.958 36.6049 26.958 35.9277C26.958 35.231 27.229 34.4426 27.7686 33.6758C28.579 32.5277 30.0986 30.3941 31.6582 28.21L35.79 22.4414C36.1478 21.9248 36.6473 21.7228 37.1396 21.7227C38.0949 21.7227 39.033 22.5124 39.0332 23.5615C39.0332 23.9564 38.9001 24.371 38.5928 24.7705C34.6367 29.9147 32.6604 32.4921 31.6729 33.8066C31.1774 34.4661 30.9365 34.8005 30.8193 34.9805C30.7944 35.0187 30.7788 35.0483 30.7666 35.0693C30.7775 35.0725 30.7907 35.0777 30.8066 35.0811C30.9609 35.1134 31.1994 35.1152 31.5508 35.1152L31.5511 35.4148L31.0938 35.4102C30.6872 35.395 30.4441 35.3339 30.4441 35.0908C30.4441 34.9491 30.4438 34.8982 33.7812 30.542L38.3551 24.5878C38.5912 24.2808 38.7032 23.9735 38.7275 23.6846L38.7331 23.5618ZM35.4092 32.418C35.4092 31.8188 35.4087 31.3465 35.3828 31.0098L35.3818 30.998V30.8789C35.3818 29.7398 36.2752 29.1213 37.1396 29.1211C37.5582 29.1211 37.9876 29.2657 38.3135 29.5791C38.6431 29.8961 38.8438 30.3631 38.8438 30.96C38.8437 31.6 38.8239 32.1791 38.8037 32.8418C38.7856 33.4348 38.7693 34.0991 38.7656 34.9434C39.5975 34.9197 40.2011 34.8984 40.3262 34.8984L40.3261 35.1988L38.4631 35.2528C38.4631 33.7542 38.5085 32.8024 38.5312 31.8848L38.5441 30.9598C38.5441 29.9726 37.927 29.484 37.2715 29.4268L37.1401 29.4208C36.4111 29.4208 35.6821 29.9338 35.6821 30.8788V30.9868C35.7091 31.3378 35.7091 31.8238 35.7091 32.4178L35.7061 33.7744C35.7027 34.2672 35.6956 34.7938 35.6821 35.3338C34.0891 35.3608 32.4691 35.4148 31.5511 35.4148L31.5508 35.1152C32.4109 35.1152 33.8821 35.0683 35.3857 35.04C35.4061 34.07 35.4092 33.156 35.4092 32.418ZM40.4072 34.8984L40.4071 35.1988H40.3261L40.3262 34.8984H40.4072ZM11.2725 12.6592C11.2725 12.1771 11.4271 11.7656 11.7646 11.4678C12.1 11.17 12.5101 11.0244 12.9756 11.0244C13.3337 11.0245 13.6626 11.1233 13.9551 11.3193L14.0684 11.3906C14.2866 11.5403 14.4617 11.729 14.5898 11.9551L14.6494 12.0713L14.6543 12.0791L14.3784 12.1988C14.271 11.9706 14.1106 11.7836 13.8975 11.6377L13.71 11.5186C13.5202 11.4078 13.3132 11.3449 13.0889 11.3291L12.9754 11.3248C12.5767 11.3248 12.2394 11.4475 11.9634 11.6928L11.8721 11.7832C11.6723 12.0046 11.5724 12.2964 11.5724 12.6588L11.5791 12.8145C11.5935 12.9638 11.6299 13.0959 11.6874 13.2108L19.0244 29.7938C19.1624 30.0851 19.3311 30.3075 19.5304 30.4608C19.7048 30.6084 19.8851 30.6915 20.0713 30.71L20.1514 30.7138C20.4121 30.7138 20.6574 30.6371 20.8874 30.4838C21.1174 30.3458 21.3014 30.1235 21.4394 29.8168L28.9144 13.3488C28.9719 13.2338 29.0081 13.1016 29.0225 12.9521L29.0294 12.7968C29.0294 12.4288 28.8914 12.1145 28.6154 11.8538C28.3547 11.5778 28.025 11.4398 27.6264 11.4398C27.2891 11.4398 27.0131 11.4935 26.7984 11.6008L26.6572 11.6924C26.5251 11.7958 26.4189 11.9345 26.3384 12.1068L20.4734 25.2628L20.2434 25.9068L20.0134 25.2398L16.9774 18.2018L14.3784 12.1988L14.6533 12.0801L17.2529 18.083L20.249 25.0283L26.0645 11.9844L26.0664 11.9795C26.1976 11.6986 26.3934 11.4785 26.6562 11.3369L26.6641 11.332C26.9337 11.1972 27.26 11.1397 27.626 11.1396C28.0967 11.1396 28.5026 11.3047 28.8213 11.6357L28.9395 11.7578C29.1962 12.0503 29.3291 12.4003 29.3291 12.7969C29.3291 13.0423 29.2849 13.2701 29.1865 13.4717L29.1875 13.4727L21.7129 29.9404C21.5562 30.2884 21.3363 30.5646 21.042 30.7412L21.041 30.7402C20.7681 30.9191 20.4702 31.0137 20.1514 31.0137C19.8513 31.0137 19.5782 30.8936 19.3369 30.6895C19.0962 30.5008 18.9033 30.2394 18.7529 29.9219L18.75 29.915L11.4131 13.332C11.3158 13.1313 11.2725 12.9033 11.2725 12.6592ZM35.5 19.7998C35.5 11.1289 28.4707 4.09961 19.7998 4.09961C11.1289 4.09961 4.09961 11.1289 4.09961 19.7998C4.09961 28.4707 11.1289 35.5 19.7998 35.5V35.7998C10.9632 35.7998 3.7998 28.6364 3.7998 19.7998C3.7998 10.9632 10.9632 3.7998 19.7998 3.7998C28.6364 3.7998 35.7998 10.9632 35.7998 19.7998C35.7998 20.0114 35.7943 20.222 35.7861 20.4316C36.9734 20.0657 38.1983 20.1371 39.2832 20.5566C39.2928 20.3055 39.2998 20.0533 39.2998 19.7998C39.2998 9.03025 30.5694 0.299805 19.7998 0.299805C9.03025 0.299805 0.299805 9.03025 0.299805 19.7998C0.299805 30.5694 9.03025 39.2998 19.7998 39.2998C21.8913 39.2998 23.9053 38.9689 25.7939 38.3594C25.23 37.3144 24.9731 36.109 25.0928 34.9014C23.4358 35.4821 21.655 35.7998 19.7998 35.7998V35.5C21.6204 35.5 23.3676 35.1879 24.9932 34.6182L25.4375 34.4629L25.3916 34.9307C25.278 36.0768 25.5212 37.2228 26.0576 38.2168L26.2295 38.5342L25.8857 38.6445C23.9679 39.2634 21.923 39.5996 19.7998 39.5996C8.86457 39.5996 0 30.735 0 19.7998C0 8.86457 8.86457 0 19.7998 0C30.735 0 39.5996 8.86457 39.5996 19.7998C39.5996 20.0586 39.5927 20.3154 39.583 20.5684L39.5674 20.9883L39.1748 20.8369C38.1502 20.4407 36.9942 20.3735 35.874 20.7188L35.4697 20.8428L35.4863 20.4199C35.4944 20.2127 35.5 20.0063 35.5 19.7998Z" fill="#8479FF"/>
</svg>
