<svg width="57" height="49" viewBox="0 0 57 49" fill="none" xmlns="http://www.w3.org/2000/svg">
<path d="M30.6396 14.6458C31.0225 14.6458 31.3391 14.7783 31.5895 15.0434C31.8545 15.2937 31.987 15.5956 31.987 15.949C31.987 16.1552 31.9502 16.3319 31.8766 16.4791L24.6978 32.2945C24.5653 32.589 24.3886 32.8026 24.1677 32.9351C23.9468 33.0824 23.7112 33.156 23.4609 33.156C23.2547 33.156 23.0559 33.075 22.8645 32.913C22.6731 32.7658 22.5111 32.5522 22.3785 32.2724L15.3323 16.3466C15.2587 16.1994 15.2219 16.0226 15.2219 15.8165C15.2219 15.4189 15.347 15.1097 15.5974 14.8888C15.8624 14.6532 16.1864 14.5354 16.5693 14.5354C16.8638 14.5354 17.1288 14.6163 17.3644 14.7783C17.6148 14.9256 17.7988 15.1244 17.9167 15.3747L20.4127 21.1398L23.3283 27.8989L23.5492 28.5395L23.7701 27.921L29.4027 15.2864C29.5058 15.0655 29.653 14.9035 29.8445 14.8004C30.0506 14.6973 30.3157 14.6458 30.6396 14.6458Z" fill="#8479FF"/>
<path d="M14.7894 15.8168C14.7894 15.3218 14.9497 14.8843 15.3099 14.5657C15.6606 14.254 16.0899 14.1034 16.5694 14.1034C16.9381 14.1034 17.2797 14.2039 17.5833 14.4054C17.9045 14.5943 18.1506 14.8575 18.3073 15.1904L18.3139 15.2025L20.8095 20.9685L23.5565 27.3366L29.0083 15.1106L29.0111 15.1031C29.1485 14.8089 29.3566 14.5728 29.6395 14.4204L29.6507 14.4138L29.7605 14.3641C30.0212 14.2575 30.3195 14.2141 30.6393 14.214C31.1258 14.214 31.5518 14.3849 31.8857 14.7289C32.2341 15.058 32.4193 15.4726 32.4193 15.9491L32.4099 16.1395C32.3924 16.3219 32.3466 16.4958 32.2683 16.6572L32.2702 16.6581L25.0918 32.4733C24.9323 32.8272 24.7027 33.1171 24.3893 33.3052C24.1066 33.4893 23.7949 33.5884 23.4609 33.5884C23.1316 33.5884 22.8368 33.4564 22.5849 33.2433C22.3981 33.0958 22.2418 32.9081 22.1122 32.6909L21.9884 32.4573L21.9828 32.447L14.9366 16.5212L14.9376 16.5202C14.8341 16.3048 14.7894 16.0661 14.7894 15.8168ZM15.2283 15.966C15.2421 16.1094 15.2771 16.2363 15.3323 16.3466L22.3785 32.2724C22.5111 32.5522 22.6731 32.7658 22.8645 32.913C23.032 33.0548 23.2052 33.1346 23.384 33.1523L23.4609 33.156C23.6487 33.156 23.828 33.1142 23.9992 33.0313L24.1677 32.9351C24.3886 32.8026 24.5653 32.589 24.6978 32.2945L31.8766 16.4791C31.9318 16.3687 31.9666 16.2418 31.9804 16.0982L31.987 15.949C31.987 15.5956 31.8545 15.2937 31.5895 15.0434C31.3391 14.7783 31.0225 14.6458 30.6396 14.6458C30.3157 14.6458 30.0506 14.6973 29.8445 14.8004C29.653 14.9035 29.5058 15.0655 29.4027 15.2864L23.7701 27.921L23.5492 28.5395L23.3283 27.8989L20.4127 21.1398L17.9167 15.3747C17.8135 15.1556 17.6595 14.976 17.4548 14.8358L17.2747 14.7214C17.0925 14.6151 16.8936 14.5547 16.6782 14.5395L16.5693 14.5354C16.1864 14.5354 15.8624 14.6532 15.5974 14.8888L15.5097 14.9756C15.3179 15.1882 15.2219 15.4685 15.2219 15.8165L15.2283 15.966Z" fill="#8479FF"/>
<path d="M23.1232 3.94727C33.466 3.94727 41.8505 12.3317 41.8505 22.6745C41.8505 22.9179 41.8437 23.1602 41.8345 23.4013C40.7926 22.9985 39.6163 22.9299 38.476 23.2813C38.4839 23.08 38.4892 22.8777 38.4892 22.6745C38.4892 14.1881 31.6096 7.30856 23.1232 7.30856C14.6369 7.30856 7.75729 14.1881 7.75729 22.6745C7.75729 31.1609 14.6369 38.0404 23.1232 38.0404C24.9049 38.0404 26.6152 37.7353 28.2064 37.1776C28.0915 38.3374 28.3382 39.495 28.8798 40.4986C27.066 41.0839 25.1318 41.4017 23.1232 41.4017C12.7805 41.4017 4.396 33.0173 4.396 22.6745C4.396 12.3317 12.7805 3.94727 23.1232 3.94727Z" fill="#8479FF"/>
<path d="M41.0469 40.1081C41.0469 40.9638 41.0988 42.001 41.1247 43.1679C41.1247 43.1938 41.1247 43.1938 41.1247 43.2197C41.1247 44.1273 40.4505 44.5421 39.7504 44.5421C39.0503 44.5421 38.3242 44.1013 38.3242 43.1679C38.3242 42.2603 38.3502 41.1972 38.3502 40.134C35.835 40.16 33.1642 40.16 32.9049 40.16C31.1676 40.16 30.2859 39.3043 30.2859 38.1634C30.2859 37.567 30.5193 36.8669 31.012 36.1667C32.5678 33.9627 36.8462 27.9729 38.7132 25.3799C38.9984 24.965 39.3874 24.8094 39.7763 24.8094C40.5542 24.8094 41.3062 25.4577 41.3062 26.2874C41.3062 26.5986 41.2025 26.9357 40.9432 27.2728C33.3457 37.1521 33.3457 37.178 33.3457 37.3595C33.3457 37.6707 33.7606 37.6707 34.4088 37.6707C35.2904 37.6707 36.8462 37.6188 38.3761 37.5929C38.402 36.5557 38.402 35.5704 38.402 34.7925C38.402 34.222 38.402 33.7553 38.3761 33.4182C38.3761 33.3922 38.3761 33.3404 38.3761 33.3144C38.3761 32.4069 39.0762 31.9142 39.7763 31.9142C40.4505 31.9142 41.1247 32.381 41.1247 33.3922C41.1247 34.6109 41.0469 35.5963 41.0469 37.5151C42.0063 37.4892 42.7064 37.4633 42.8361 37.4633C42.862 37.4633 42.8879 37.4633 42.9139 37.4633C43.7695 37.4633 44.2363 38.0856 44.2363 38.7338C44.2363 39.3821 43.7436 40.0563 42.7323 40.0822C42.4212 40.0822 41.7989 40.1081 41.0469 40.1081Z" fill="#8479FF"/>
<path d="M41.3062 26.2874C41.3062 25.4577 40.5542 24.8094 39.7763 24.8094C39.3874 24.8094 38.9984 24.965 38.7132 25.3799C36.8462 27.9729 32.5678 33.9627 31.012 36.1667C30.5193 36.8669 30.2859 37.567 30.2859 38.1634C30.2859 39.2329 31.0608 40.0515 32.5891 40.1497L32.9049 40.16C33.1657 40.16 35.8358 40.16 38.3502 40.134C38.3502 41.1972 38.3242 42.2603 38.3242 43.1679C38.3242 44.0431 38.9625 44.4853 39.6193 44.537L39.7504 44.5421C40.4505 44.5421 41.1247 44.1273 41.1247 43.2197V43.1679C41.0988 42.001 41.0469 40.9638 41.0469 40.1081C41.7989 40.1081 42.4212 40.0822 42.7323 40.0822C43.6805 40.0579 44.173 39.4638 44.2308 38.8554L44.2363 38.7338C44.2361 38.1262 43.8259 37.5409 43.0697 37.4702L42.9139 37.4633L42.914 37.1748C43.9437 37.1749 44.5242 37.9418 44.5243 38.7335C44.5243 39.5414 43.9036 40.3402 42.7396 40.3701H42.7321C42.5808 40.3701 42.3532 40.3767 42.0615 40.3832C41.848 40.388 41.6034 40.3895 41.3375 40.3917C41.3466 41.1843 41.3891 42.1094 41.4125 43.1612V43.2193C41.4125 43.7514 41.2116 44.1654 40.8863 44.4413C40.5681 44.7112 40.154 44.8305 39.7506 44.8306C39.3437 44.8306 38.9175 44.7028 38.5886 44.4254C38.2529 44.1422 38.0362 43.7168 38.0362 43.1677C38.0362 42.7118 38.0428 42.2171 38.0493 41.7056C38.0546 41.2867 38.0579 40.8561 38.0596 40.4235C35.6334 40.4466 33.1559 40.4479 32.9051 40.4479C31.9923 40.4479 31.2659 40.2234 30.7621 39.813C30.2524 39.3976 29.9978 38.8137 29.9978 38.1633C29.9978 37.4942 30.258 36.737 30.7762 36.0006C32.3327 33.7956 36.6125 27.8049 38.4798 25.2114C38.8234 24.7153 39.3031 24.5213 39.7759 24.5211C40.6933 24.5211 41.5943 25.2796 41.5944 26.2871L41.5879 26.4306C41.5594 26.7661 41.4296 27.1126 41.1714 27.4482C37.3722 32.3886 35.4742 34.8638 34.5258 36.1263C34.05 36.7595 33.8186 37.0808 33.7061 37.2536C33.6822 37.2903 33.6671 37.3187 33.6554 37.3389C33.6659 37.342 33.6786 37.3469 33.6939 37.3502C33.842 37.3813 34.071 37.383 34.4085 37.383L34.4088 37.6707L33.9696 37.6662C33.5792 37.6517 33.3457 37.593 33.3457 37.3595C33.3457 37.2234 33.3454 37.1746 36.5506 32.991L40.9432 27.2728C41.17 26.9779 41.2775 26.6828 41.3009 26.4053L41.3062 26.2874ZM38.114 34.7926C38.114 34.2172 38.1136 33.7636 38.0887 33.4402L38.0878 33.429V33.3145C38.0878 32.2206 38.9457 31.6266 39.7759 31.6264C40.1779 31.6264 40.5902 31.7653 40.9032 32.0663C41.2198 32.3707 41.4125 32.8192 41.4125 33.3924L41.4003 34.288C41.393 34.5834 41.3837 34.8815 41.374 35.1996C41.3567 35.7691 41.3409 36.4071 41.3375 37.2179C42.1364 37.1952 42.7161 37.1748 42.8362 37.1748L42.8361 37.4633L41.0469 37.5151C41.0469 36.0759 41.0905 35.1618 41.1124 34.2805L41.1247 33.3922C41.1247 32.4442 40.5321 31.9749 39.9025 31.9199L39.7763 31.9142C39.0762 31.9142 38.3761 32.4069 38.3761 33.3144V33.4182C38.402 33.7553 38.402 34.222 38.402 34.7925L38.3991 36.0953C38.3959 36.5686 38.3891 37.0742 38.3761 37.5929C36.8462 37.6188 35.2904 37.6707 34.4088 37.6707L34.4085 37.383C35.2346 37.383 36.6474 37.3379 38.0915 37.3108C38.111 36.3792 38.114 35.5014 38.114 34.7926ZM42.914 37.1748L42.9139 37.4633H42.8361L42.8362 37.1748H42.914Z" fill="#8479FF"/>
</svg>
