<svg width="57" height="49" viewBox="0 0 57 49" fill="none" xmlns="http://www.w3.org/2000/svg">
<path d="M29.0818 15.2478C30.01 15.2478 30.7625 16.0003 30.7625 16.9285C30.7625 17.8566 30.01 18.6091 29.0818 18.6091H17.1644C16.2362 18.6091 15.4838 17.8566 15.4838 16.9285C15.4838 16.0003 16.2362 15.2478 17.1644 15.2478H29.0818Z" fill="#CE3FF2"/>
<path d="M29.0818 30.3575C30.01 30.3575 30.7625 31.1099 30.7625 32.0381C30.7625 32.9663 30.01 33.7187 29.0818 33.7188H17.1644C16.2362 33.7188 15.4838 32.9663 15.4838 32.0381C15.4838 31.1099 16.2362 30.3575 17.1644 30.3575H29.0818Z" fill="#CE3FF2"/>
<path d="M24.8039 22.8874C24.8038 23.8156 24.0514 24.568 23.1232 24.568C22.1951 24.568 21.4426 23.8156 21.4426 22.8874V10.97C21.4426 10.0418 22.195 9.28933 23.1232 9.28933C24.0514 9.28933 24.8039 10.0418 24.8039 10.97V22.8874Z" fill="#CE3FF2"/>
<path d="M23.1232 3.94727C33.466 3.94727 41.8505 12.3317 41.8505 22.6745C41.8505 23.652 41.7744 24.6119 41.6301 25.549C41.0299 24.0705 39.8458 23.0693 38.4882 22.6267C38.4624 14.1623 31.5936 7.30856 23.1232 7.30856C14.6369 7.30856 7.75729 14.1881 7.75729 22.6745C7.75729 31.1609 14.6369 38.0404 23.1232 38.0404C26.3284 38.0404 29.3039 37.0583 31.7666 35.3797V39.2906C29.1806 40.6385 26.2412 41.4017 23.1232 41.4017C12.7805 41.4017 4.396 33.0173 4.396 22.6745C4.396 12.3317 12.7805 3.94727 23.1232 3.94727Z" fill="#CE3FF2"/>
<path d="M38.8947 43.2197C38.8947 44.1273 38.1427 44.594 37.3908 44.594C36.6388 44.594 35.8609 44.1013 35.8609 43.1679C35.8609 40.7564 35.9646 35.2333 35.9646 31.8105C35.9646 28.1803 35.835 27.8951 34.9533 27.8951C34.8755 27.8951 34.7978 27.8951 34.72 27.8951C34.6681 27.8951 34.6422 27.8951 34.5903 27.8951C33.7087 27.8951 33.2679 27.2209 33.2679 26.5208C33.2679 25.7688 33.7346 25.0168 34.6163 24.9391C35.1349 24.9131 35.3423 24.9131 35.8868 24.9131C37.676 24.9131 38.8169 25.9763 38.8947 27.6876C38.9206 28.0247 38.9206 28.4915 38.9206 29.0619C38.9206 31.1363 38.8428 34.6109 38.8428 38.3189C38.8428 39.9266 38.8428 41.5602 38.8947 43.1679C38.8947 43.1938 38.8947 43.1938 38.8947 43.2197Z" fill="#CE3FF2"/>
<path d="M35.5724 43.1677C35.5724 41.9597 35.599 39.9738 35.6249 37.8651C35.6509 35.7546 35.6765 33.5195 35.6765 31.8102C35.6765 30.9033 35.6683 30.2109 35.6428 29.6813C35.617 29.1476 35.5741 28.7978 35.5115 28.5671C35.4497 28.3396 35.3801 28.2709 35.3323 28.2416C35.2863 28.2136 35.2186 28.195 35.096 28.1873L34.9534 28.1835H34.5905C34.0694 28.1835 33.6571 27.9806 33.3797 27.6583C33.1075 27.342 32.9802 26.9282 32.9802 26.5207C32.9802 25.6632 33.5207 24.7471 34.5905 24.6524L34.6017 24.6515C35.1275 24.6252 35.3407 24.6253 35.8866 24.6253C36.8385 24.6253 37.6464 24.9084 38.2284 25.4468C38.8096 25.9844 39.1379 26.7512 39.1813 27.6658C39.2083 28.0166 39.2085 28.4969 39.2085 29.0623L39.1963 30.8648C39.189 31.541 39.1798 32.286 39.1701 33.081C39.1506 34.6723 39.1307 36.4668 39.1307 38.319L39.1372 40.7415C39.1437 41.5498 39.1564 42.3574 39.1822 43.1583L39.1832 43.1677V43.2193L39.1719 43.4172C39.1235 43.8656 38.9114 44.2222 38.6073 44.4704C38.2664 44.7486 37.8229 44.8821 37.3909 44.8821C36.5319 44.8821 35.5724 44.3078 35.5724 43.1677ZM33.2728 26.652C33.3211 27.2593 33.7071 27.8156 34.4301 27.8871L34.5903 27.8951H34.9533C35.835 27.8951 35.9646 28.1803 35.9646 31.8105C35.9646 35.2333 35.8609 40.7564 35.8609 43.1679L35.8697 43.3375C35.9519 44.1059 36.5913 44.5348 37.2493 44.5886L37.3908 44.594C38.1427 44.594 38.8947 44.1273 38.8947 43.2197V43.1679C38.8688 42.3641 38.8558 41.5536 38.8493 40.7434L38.8428 38.3189C38.8428 35.5379 38.8865 32.8882 38.9084 30.862L38.9206 29.0619C38.9206 28.4915 38.9206 28.0247 38.8947 27.6876C38.8217 26.0835 37.8145 25.0485 36.2148 24.9254L35.8868 24.9131C35.3423 24.9131 35.1349 24.9131 34.6163 24.9391C33.7346 25.0168 33.2679 25.7688 33.2679 26.5208L33.2728 26.652Z" fill="#CE3FF2"/>
<path d="M54.1262 38.5523C54.1262 42.1047 51.4035 44.7496 47.6437 44.7496C44.2209 44.7496 41.0834 42.3381 41.0834 38.0856C41.0834 35.9593 41.8872 33.7293 42.8726 31.8883C43.9357 29.9176 47.8771 24.9131 49.5884 24.9131C50.4441 24.9131 51.1702 25.691 51.1702 26.443C51.1702 26.806 51.0146 27.169 50.5997 27.4283C47.54 29.4249 45.0507 32.8477 45.0507 33.3922C45.0507 33.4441 45.0766 33.47 45.1285 33.47C45.1803 33.47 45.2063 33.4441 45.2841 33.4182C46.2175 32.9774 47.2029 32.7699 48.1364 32.7699C51.974 32.7699 54.1262 35.4926 54.1262 38.5523ZM51.4295 38.5782C51.4295 36.7631 50.107 35.1296 47.7215 35.1296C45.2322 35.1296 43.832 36.9446 43.832 38.7598C43.832 40.9638 45.6471 42.1307 47.5659 42.1307C50.1589 42.1307 51.4295 40.3415 51.4295 38.5782Z" fill="#CE3FF2"/>
<path d="M51.1409 38.5778C51.1408 37.7404 50.8362 36.9529 50.265 36.3757C49.6957 35.8008 48.8453 35.4172 47.7215 35.4172C45.3991 35.4172 44.1201 37.0959 44.1201 38.7598L44.1248 38.9473C44.1727 39.8686 44.5738 40.568 45.1621 41.0491C45.796 41.5674 46.6617 41.8425 47.5658 41.8425L47.5659 42.1307C45.7071 42.1306 43.9451 41.0355 43.8369 38.9633L43.832 38.7598C43.832 36.9446 45.2322 35.1296 47.7215 35.1296L47.9419 35.134C50.1882 35.2315 51.4293 36.82 51.4295 38.5782L51.426 38.7438C51.3489 40.4517 50.0777 42.1307 47.5659 42.1307L47.5658 41.8425C48.792 41.8425 49.6801 41.4212 50.2621 40.8156C50.8477 40.2063 51.1409 39.3918 51.1409 38.5778ZM45.0945 33.4655C45.0749 33.4591 45.0616 33.4458 45.0551 33.4262L45.0507 33.3922C45.0507 32.8647 47.3869 29.6363 50.3147 27.6198L50.5997 27.4283C51.0146 27.169 51.1702 26.806 51.1702 26.443C51.1701 25.7381 50.532 25.0098 49.7473 24.9216L49.5884 24.9131C47.8771 24.9131 43.9357 29.9176 42.8726 31.8883C41.8872 33.7293 41.0834 35.9593 41.0834 38.0856C41.0834 42.2052 44.028 44.597 47.3238 44.7424L47.6437 44.7496C51.286 44.7496 53.9554 42.2675 54.1186 38.8826L54.1262 38.5523C54.1262 35.4926 51.974 32.7699 48.1364 32.7699C47.2029 32.7699 46.2175 32.9774 45.2841 33.4182C45.2063 33.4441 45.1803 33.47 45.1285 33.47L45.0945 33.4655ZM51.4579 26.4428C51.4579 26.8984 51.2566 27.354 50.7564 27.6686L50.7573 27.6696C49.2573 28.6484 47.8894 29.9826 46.8962 31.1425C46.4003 31.7215 46.0016 32.2529 45.7285 32.6693C45.6495 32.7898 45.5819 32.8995 45.5259 32.9966C46.3878 32.6471 47.2819 32.4818 48.136 32.4817C50.1267 32.4817 51.7019 33.1899 52.7784 34.3143C53.8523 35.4361 54.4141 36.9556 54.4141 38.5525L54.4056 38.8986C54.2339 42.4447 51.4294 45.0378 47.6436 45.0378C44.0801 45.0378 40.7954 42.5148 40.7954 38.0854C40.7954 35.8931 41.6218 33.6145 42.6186 31.7521C43.1642 30.7407 44.4314 28.9774 45.7726 27.4698C46.4441 26.715 47.1426 26.0144 47.7871 25.5003C48.1093 25.2433 48.4241 25.028 48.7203 24.8757C49.013 24.7252 49.3096 24.6253 49.5888 24.6253C50.1048 24.6254 50.5703 24.8593 50.9036 25.1927C51.2354 25.5244 51.4579 25.9766 51.4579 26.4428Z" fill="#CE3FF2"/>
</svg>
