<svg width="65" height="55" viewBox="0 0 65 55" fill="none" xmlns="http://www.w3.org/2000/svg">
<circle cx="24" cy="25" r="20.25" stroke="#C360FF" stroke-width="3.5"/>
<path d="M17 17H31" stroke="#C360FF" stroke-width="3.5" stroke-linecap="square"/>
<path d="M17 36H31" stroke="#C360FF" stroke-width="3.5" stroke-linecap="square"/>
<path d="M24 10L24 24" stroke="#C360FF" stroke-width="3.5" stroke-linecap="square"/>
<path d="M45.94 52V39.2L47.34 40.6H43.14V38H49.18V52H45.94ZM57.872 52.24C56.592 52.24 55.4787 51.9733 54.532 51.44C53.5987 50.9067 52.8787 50.1267 52.372 49.1C51.8654 48.0733 51.612 46.8067 51.612 45.3C51.612 43.6867 51.912 42.32 52.512 41.2C53.1254 40.08 53.9654 39.2267 55.032 38.64C56.112 38.0533 57.352 37.76 58.752 37.76C59.4987 37.76 60.212 37.84 60.892 38C61.572 38.16 62.1587 38.4 62.652 38.72L61.452 41.1C61.0654 40.8333 60.652 40.6533 60.212 40.56C59.772 40.4533 59.312 40.4 58.832 40.4C57.6187 40.4 56.6587 40.7667 55.952 41.5C55.2454 42.2333 54.892 43.32 54.892 44.76C54.892 45 54.892 45.2667 54.892 45.56C54.9054 45.8533 54.9454 46.1467 55.012 46.44L54.112 45.6C54.3654 45.08 54.692 44.6467 55.092 44.3C55.492 43.94 55.9654 43.6733 56.512 43.5C57.072 43.3133 57.6854 43.22 58.352 43.22C59.2587 43.22 60.072 43.4 60.792 43.76C61.512 44.12 62.0854 44.6267 62.512 45.28C62.952 45.9333 63.172 46.7 63.172 47.58C63.172 48.5267 62.932 49.3533 62.452 50.06C61.9854 50.7533 61.352 51.2933 60.552 51.68C59.7654 52.0533 58.872 52.24 57.872 52.24ZM57.692 49.82C58.1454 49.82 58.5454 49.74 58.892 49.58C59.252 49.4067 59.532 49.16 59.732 48.84C59.932 48.52 60.032 48.1533 60.032 47.74C60.032 47.1 59.812 46.5933 59.372 46.22C58.9454 45.8333 58.372 45.64 57.652 45.64C57.172 45.64 56.752 45.7333 56.392 45.92C56.032 46.0933 55.7454 46.34 55.532 46.66C55.332 46.9667 55.232 47.3267 55.232 47.74C55.232 48.14 55.332 48.5 55.532 48.82C55.732 49.1267 56.012 49.3733 56.372 49.56C56.732 49.7333 57.172 49.82 57.692 49.82Z" fill="#C360FF"/>
</svg>
