<svg width="53" height="43" viewBox="0 0 53 43" fill="none" xmlns="http://www.w3.org/2000/svg">
<path d="M25.7045 11.7668C26.6709 11.7669 27.4545 12.5504 27.4545 13.5168C27.4545 14.4833 26.6709 15.2668 25.7045 15.2668H13.2953C12.3288 15.2668 11.5453 14.4833 11.5453 13.5168C11.5453 12.5503 12.3288 11.7668 13.2953 11.7668H25.7045Z" fill="#CE3FF2"/>
<path d="M25.7045 27.5C26.6709 27.5 27.4545 28.2835 27.4545 29.25C27.4545 30.2165 26.6709 31 25.7045 31H13.2953C12.3288 31 11.5453 30.2165 11.5453 29.25C11.5453 28.2835 12.3288 27.5 13.2953 27.5H25.7045Z" fill="#CE3FF2"/>
<path d="M21.25 19.7217C21.25 20.6881 20.4665 21.4717 19.5 21.4717C18.5335 21.4717 17.75 20.6881 17.75 19.7217V7.3125C17.75 6.346 18.5335 5.5625 19.5 5.5625C20.4665 5.5625 21.25 6.346 21.25 7.3125V19.7217Z" fill="#CE3FF2"/>
<path d="M19.5 0C30.2696 0 39 8.73045 39 19.5C39 20.5179 38.9208 21.5174 38.7705 22.4932C38.1456 20.9536 36.9126 19.9111 35.499 19.4502C35.4722 10.6365 28.3199 3.5 19.5 3.5C10.6634 3.5 3.5 10.6634 3.5 19.5C3.5 28.3366 10.6634 35.5 19.5 35.5C22.8374 35.5 25.9357 34.4774 28.5 32.7295V36.8018C25.8073 38.2053 22.7466 39 19.5 39C8.73045 39 0 30.2696 0 19.5C0 8.73045 8.73045 0 19.5 0Z" fill="#CE3FF2"/>
<path d="M35.9223 40.893C35.9223 41.838 35.1393 42.324 34.3563 42.324C33.5733 42.324 32.7633 41.811 32.7633 40.839C32.7633 38.328 32.8713 32.577 32.8713 29.013C32.8713 25.233 32.7363 24.936 31.8183 24.936C31.7373 24.936 31.6563 24.936 31.5753 24.936C31.5213 24.936 31.4943 24.936 31.4403 24.936C30.5223 24.936 30.0633 24.234 30.0633 23.505C30.0633 22.722 30.5493 21.939 31.4673 21.858C32.0073 21.831 32.2233 21.831 32.7903 21.831C34.6533 21.831 35.8413 22.938 35.9223 24.72C35.9493 25.071 35.9493 25.557 35.9493 26.151C35.9493 28.311 35.8683 31.929 35.8683 35.79C35.8683 37.464 35.8683 39.165 35.9223 40.839C35.9223 40.866 35.9223 40.866 35.9223 40.893Z" fill="#CE3FF2"/>
<path d="M32.4629 40.8389C32.4629 39.581 32.4906 37.5131 32.5176 35.3174C32.5446 33.1199 32.5713 30.7925 32.5713 29.0127C32.5713 28.0683 32.5627 27.3474 32.5361 26.7959C32.5093 26.2402 32.4646 25.8759 32.3994 25.6357C32.3351 25.3988 32.2626 25.3274 32.2129 25.2969C32.165 25.2677 32.0945 25.2483 31.9668 25.2402L31.8184 25.2363H31.4404C30.8978 25.2363 30.4686 25.0251 30.1797 24.6895C29.8963 24.3601 29.7637 23.9292 29.7637 23.5049C29.7637 22.612 30.3265 21.6581 31.4404 21.5596L31.4521 21.5586C31.9996 21.5312 32.2216 21.5313 32.79 21.5312C33.7812 21.5312 34.6224 21.8261 35.2285 22.3867C35.8337 22.9465 36.1755 23.7449 36.2207 24.6973C36.2488 25.0625 36.249 25.5627 36.249 26.1514L36.2363 28.0283C36.2287 28.7324 36.2191 29.5081 36.209 30.3359C36.1887 31.9929 36.168 33.8615 36.168 35.79L36.1748 38.3125C36.1815 39.1542 36.1948 39.9951 36.2217 40.8291L36.2227 40.8389V40.8926L36.2109 41.0986C36.1605 41.5655 35.9397 41.9368 35.623 42.1953C35.2681 42.485 34.8062 42.624 34.3564 42.624C33.462 42.624 32.4629 42.026 32.4629 40.8389ZM30.0684 23.6416C30.1187 24.274 30.5206 24.8532 31.2734 24.9277L31.4403 24.936H31.8183C32.7363 24.936 32.8713 25.233 32.8713 29.013C32.8713 32.577 32.7633 38.328 32.7633 40.839L32.7725 41.0156C32.8581 41.8158 33.5238 42.2623 34.209 42.3184L34.3563 42.324C35.1393 42.324 35.9223 41.838 35.9223 40.893V40.839C35.8953 40.002 35.8817 39.1582 35.875 38.3145L35.8683 35.79C35.8683 32.8943 35.9137 30.1352 35.9365 28.0254L35.9493 26.151C35.9493 25.557 35.9493 25.071 35.9223 24.72C35.8462 23.0496 34.7975 21.972 33.1318 21.8438L32.7903 21.831C32.2233 21.831 32.0073 21.831 31.4673 21.858C30.5493 21.939 30.0633 22.722 30.0633 23.505L30.0684 23.6416Z" fill="#CE3FF2"/>
<path d="M51.7823 36.033C51.7823 39.732 48.9473 42.486 45.0323 42.486C41.4683 42.486 38.2013 39.975 38.2013 35.547C38.2013 33.333 39.0383 31.011 40.0643 29.094C41.1713 27.042 45.2753 21.831 47.0573 21.831C47.9483 21.831 48.7043 22.641 48.7043 23.424C48.7043 23.802 48.5423 24.18 48.1103 24.45C44.9243 26.529 42.3323 30.093 42.3323 30.66C42.3323 30.714 42.3593 30.741 42.4133 30.741C42.4673 30.741 42.4943 30.714 42.5753 30.687C43.5473 30.228 44.5733 30.012 45.5453 30.012C49.5413 30.012 51.7823 32.847 51.7823 36.033ZM48.9743 36.06C48.9743 34.17 47.5973 32.469 45.1133 32.469C42.5213 32.469 41.0633 34.359 41.0633 36.249C41.0633 38.544 42.9533 39.759 44.9513 39.759C47.6513 39.759 48.9743 37.896 48.9743 36.06Z" fill="#CE3FF2"/>
<path d="M48.6738 36.0596C48.6737 35.1876 48.3566 34.3676 47.7617 33.7666C47.169 33.1679 46.2834 32.7686 45.1133 32.7686C42.6951 32.7686 41.3633 34.5165 41.3633 36.249L41.3682 36.4443C41.418 37.4036 41.8357 38.1319 42.4482 38.6328C43.1084 39.1725 44.0098 39.459 44.9512 39.459L44.9513 39.759C43.0157 39.759 41.1811 38.6187 41.0684 36.4609L41.0633 36.249C41.0633 34.359 42.5213 32.469 45.1133 32.469L45.3428 32.4736C47.6818 32.5751 48.9741 34.2292 48.9743 36.06L48.9707 36.2324C48.8904 38.0108 47.5668 39.759 44.9513 39.759L44.9512 39.459C46.228 39.459 47.1527 39.0203 47.7588 38.3896C48.3685 37.7552 48.6738 36.9071 48.6738 36.0596ZM42.3779 30.7363C42.3575 30.7296 42.3437 30.7158 42.3369 30.6953L42.3323 30.66C42.3323 30.1107 44.7649 26.7491 47.8135 24.6494L48.1103 24.45C48.5423 24.18 48.7043 23.802 48.7043 23.424C48.7042 22.69 48.0398 21.9317 47.2227 21.8398L47.0573 21.831C45.2753 21.831 41.1713 27.042 40.0643 29.094C39.0383 31.011 38.2013 33.333 38.2013 35.547C38.2013 39.8367 41.2673 42.3271 44.6992 42.4785L45.0323 42.486C48.8249 42.486 51.6044 39.9014 51.7744 36.377L51.7823 36.033C51.7823 32.847 49.5413 30.012 45.5453 30.012C44.5733 30.012 43.5473 30.228 42.5753 30.687C42.4943 30.714 42.4673 30.741 42.4133 30.741L42.3779 30.7363ZM49.0039 23.4238C49.0039 23.8982 48.7942 24.3726 48.2734 24.7002L48.2744 24.7012C46.7124 25.7204 45.2882 27.1096 44.2539 28.3174C43.7376 28.9203 43.3225 29.4737 43.0381 29.9072C42.9558 30.0327 42.8854 30.1469 42.8271 30.248C43.7245 29.8841 44.6556 29.712 45.5449 29.7119C47.6178 29.7119 49.258 30.4493 50.3789 31.6201C51.4971 32.7882 52.082 34.3704 52.082 36.0332L52.0732 36.3936C51.8945 40.086 48.9742 42.7861 45.0322 42.7861C41.3216 42.7861 37.9014 40.159 37.9014 35.5469C37.9014 33.2641 38.7619 30.8915 39.7998 28.9521C40.368 27.899 41.6874 26.063 43.084 24.4932C43.7832 23.7072 44.5106 22.9777 45.1816 22.4424C45.5171 22.1748 45.8449 21.9506 46.1533 21.792C46.4581 21.6353 46.767 21.5312 47.0576 21.5312C47.5949 21.5314 48.0796 21.7749 48.4268 22.1221C48.7722 22.4675 49.0039 22.9383 49.0039 23.4238Z" fill="#CE3FF2"/>
</svg>
