<svg width="57" height="49" viewBox="0 0 57 49" fill="none" xmlns="http://www.w3.org/2000/svg">
<path d="M29.0818 15.4548C30.01 15.4549 30.7625 16.2073 30.7625 17.1355C30.7625 18.0637 30.01 18.8161 29.0818 18.8161H17.1644C16.2362 18.8161 15.4838 18.0637 15.4838 17.1355C15.4838 16.2073 16.2362 15.4548 17.1644 15.4548H29.0818Z" fill="#F23F3F"/>
<path d="M29.0818 30.5645C30.01 30.5645 30.7625 31.317 30.7625 32.2451C30.7625 33.1733 30.01 33.9257 29.0818 33.9258H17.1644C16.2362 33.9258 15.4838 33.1733 15.4838 32.2451C15.4838 31.3169 16.2362 30.5645 17.1644 30.5645H29.0818Z" fill="#F23F3F"/>
<path d="M24.8039 23.0944C24.8038 24.0226 24.0514 24.7751 23.1232 24.7751C22.1951 24.7751 21.4426 24.0226 21.4426 23.0944V11.177C21.4426 10.2488 22.195 9.49636 23.1232 9.49636C24.0514 9.49636 24.8039 10.2488 24.8039 11.177V23.0944Z" fill="#F23F3F"/>
<path d="M23.1232 4.1543C33.466 4.1543 41.8505 12.5388 41.8505 22.8815C41.8505 23.0355 41.8476 23.189 41.8439 23.342C40.8433 23.1621 39.7737 23.2742 38.7621 23.7462C38.6576 23.795 38.5551 23.8474 38.4545 23.9029C38.4766 23.5652 38.4892 23.2247 38.4892 22.8815C38.4892 14.3952 31.6096 7.5156 23.1232 7.5156C14.6369 7.5156 7.75729 14.3952 7.75729 22.8815C7.75729 31.3679 14.6369 38.2475 23.1232 38.2475C25.2899 38.2475 27.3509 37.797 29.2203 36.9879C29.0176 38.17 29.2005 39.3679 29.6967 40.4205C27.6512 41.1875 25.4366 41.6088 23.1232 41.6088C12.7805 41.6088 4.396 33.2243 4.396 22.8815C4.396 12.5388 12.7805 4.1543 23.1232 4.1543Z" fill="#F23F3F"/>
<path d="M42.0073 40.3151C42.0073 41.1708 42.0591 42.208 42.0851 43.3749C42.0851 43.4008 42.0851 43.4008 42.0851 43.4267C42.0851 44.3343 41.4109 44.7492 40.7108 44.7492C40.0107 44.7492 39.2846 44.3084 39.2846 43.3749C39.2846 42.4673 39.3105 41.4042 39.3105 40.3411C36.7953 40.367 34.1245 40.367 33.8652 40.367C32.1279 40.367 31.2463 39.5113 31.2463 38.3704C31.2463 37.774 31.4797 37.0739 31.9723 36.3738C33.5281 34.1697 37.8066 28.1799 39.6736 25.5869C39.9588 25.172 40.3477 25.0164 40.7367 25.0164C41.5146 25.0164 42.2666 25.6647 42.2666 26.4944C42.2666 26.8056 42.1628 27.1427 41.9035 27.4798C34.3061 37.3591 34.3061 37.3851 34.3061 37.5666C34.3061 37.8777 34.7209 37.8777 35.3692 37.8777C36.2508 37.8777 37.8066 37.8259 39.3365 37.7999C39.3624 36.7627 39.3624 35.7774 39.3624 34.9995C39.3624 34.429 39.3624 33.9623 39.3365 33.6252C39.3365 33.5993 39.3365 33.5474 39.3365 33.5215C39.3365 32.6139 40.0366 32.1213 40.7367 32.1213C41.4109 32.1213 42.0851 32.588 42.0851 33.5993C42.0851 34.818 42.0073 35.8033 42.0073 37.7221C42.9667 37.6962 43.6668 37.6703 43.7964 37.6703C43.8224 37.6703 43.8483 37.6703 43.8742 37.6703C44.7299 37.6703 45.1967 38.2926 45.1967 38.9409C45.1967 39.5891 44.704 40.2633 43.6927 40.2892C43.3816 40.2892 42.7592 40.3151 42.0073 40.3151Z" fill="#F23F3F"/>
<path d="M42.2666 26.4944C42.2666 25.6647 41.5146 25.0164 40.7367 25.0164C40.3477 25.0164 39.9588 25.172 39.6736 25.5869C37.8066 28.1799 33.5281 34.1697 31.9723 36.3738C31.4797 37.0739 31.2463 37.774 31.2463 38.3704C31.2463 39.44 32.0212 40.2585 33.5494 40.3567L33.8652 40.367C34.1261 40.367 36.7962 40.367 39.3105 40.3411C39.3105 41.4042 39.2846 42.4673 39.2846 43.3749C39.2846 44.2501 39.9229 44.6923 40.5797 44.744L40.7108 44.7492C41.4109 44.7492 42.0851 44.3343 42.0851 43.4267V43.3749C42.0591 42.208 42.0073 41.1708 42.0073 40.3151C42.7592 40.3151 43.3816 40.2892 43.6927 40.2892C44.6408 40.2649 45.1333 39.6708 45.1911 39.0625L45.1967 38.9409C45.1965 38.3332 44.7863 37.748 44.0301 37.6772L43.8742 37.6703L43.8744 37.3818C44.904 37.3819 45.4845 38.1488 45.4847 38.9405C45.4847 39.7484 44.864 40.5473 43.6999 40.5771H43.6924C43.5411 40.5771 43.3136 40.5837 43.0219 40.5902C42.8083 40.595 42.5637 40.5965 42.2978 40.5987C42.307 41.3913 42.3495 42.3165 42.3729 43.3682V43.4263C42.3729 43.9584 42.172 44.3725 41.8467 44.6484C41.5284 44.9182 41.1144 45.0375 40.711 45.0376C40.3041 45.0376 39.8779 44.9099 39.5489 44.6324C39.2133 44.3492 38.9965 43.9238 38.9965 43.3748C38.9965 42.9188 39.0032 42.4241 39.0097 41.9126C39.015 41.4938 39.0182 41.0631 39.02 40.6306C36.5938 40.6536 34.1163 40.655 33.8655 40.655C32.9527 40.655 32.2263 40.4304 31.7225 40.02C31.2127 39.6047 30.9581 39.0207 30.9581 38.3703C30.9581 37.7012 31.2184 36.944 31.7366 36.2076C33.293 34.0026 37.5729 28.0119 39.4402 25.4184C39.7838 24.9223 40.2634 24.7283 40.7363 24.7282C41.6537 24.7282 42.5546 25.4866 42.5548 26.4942L42.5482 26.6377C42.5197 26.9731 42.39 27.3196 42.1318 27.6552C38.3325 32.5956 36.4346 35.0708 35.4861 36.3333C35.0104 36.9666 34.779 37.2878 34.6664 37.4606C34.6425 37.4973 34.6275 37.5258 34.6158 37.5459C34.6263 37.549 34.6389 37.554 34.6542 37.5572C34.8024 37.5883 35.0314 37.59 35.3689 37.59L35.3692 37.8777L34.93 37.8733C34.5396 37.8587 34.3061 37.8 34.3061 37.5666C34.3061 37.4304 34.3058 37.3816 37.511 33.198L41.9035 27.4798C42.1303 27.1849 42.2378 26.8899 42.2612 26.6123L42.2666 26.4944ZM39.0744 34.9996C39.0744 34.4243 39.0739 33.9706 39.0491 33.6472L39.0481 33.636V33.5216C39.0481 32.4276 39.9061 31.8336 40.7363 31.8334C41.1383 31.8334 41.5506 31.9723 41.8636 32.2733C42.1802 32.5777 42.3729 33.0262 42.3729 33.5994L42.3607 34.4951C42.3533 34.7904 42.3441 35.0885 42.3344 35.4067C42.3171 35.9762 42.3013 36.6141 42.2978 37.425C43.0967 37.4022 43.6764 37.3818 43.7965 37.3818L43.7964 37.6703L42.0073 37.7221C42.0073 36.2829 42.0509 35.3689 42.0727 34.4876L42.0851 33.5993C42.0851 32.6512 41.4925 32.1819 40.8629 32.127L40.7367 32.1213C40.0366 32.1213 39.3365 32.6139 39.3365 33.5215V33.6252C39.3624 33.9623 39.3624 34.429 39.3624 34.9995L39.3595 36.3023C39.3563 36.7756 39.3494 37.2813 39.3365 37.7999C37.8066 37.8259 36.2508 37.8777 35.3692 37.8777L35.3689 37.59C36.1949 37.59 37.6078 37.545 39.0519 37.5178C39.0714 36.5862 39.0744 35.7084 39.0744 34.9996ZM43.8744 37.3818L43.8742 37.6703H43.7964L43.7965 37.3818H43.8744Z" fill="#F23F3F"/>
</svg>
