<svg width="43" height="43" viewBox="0 0 43 43" fill="none" xmlns="http://www.w3.org/2000/svg">
<path d="M25.7045 11.7668C26.6709 11.7669 27.4545 12.5504 27.4545 13.5168C27.4545 14.4833 26.6709 15.2668 25.7045 15.2668H13.2953C12.3288 15.2668 11.5453 14.4833 11.5453 13.5168C11.5453 12.5503 12.3288 11.7668 13.2953 11.7668H25.7045Z" fill="#F23F3F"/>
<path d="M25.7045 27.5C26.6709 27.5 27.4545 28.2835 27.4545 29.25C27.4545 30.2165 26.6709 31 25.7045 31H13.2953C12.3288 31 11.5453 30.2165 11.5453 29.25C11.5453 28.2835 12.3288 27.5 13.2953 27.5H25.7045Z" fill="#F23F3F"/>
<path d="M21.25 19.7217C21.25 20.6881 20.4665 21.4717 19.5 21.4717C18.5335 21.4717 17.75 20.6881 17.75 19.7217V7.3125C17.75 6.346 18.5335 5.5625 19.5 5.5625C20.4665 5.5625 21.25 6.346 21.25 7.3125V19.7217Z" fill="#F23F3F"/>
<path d="M19.5 0C30.2696 0 39 8.73045 39 19.5C39 19.6603 38.997 19.8201 38.9932 19.9795C37.9513 19.7922 36.8375 19.9088 35.7842 20.4004C35.6754 20.4512 35.5686 20.5058 35.4639 20.5635C35.4869 20.2119 35.5 19.8574 35.5 19.5C35.5 10.6634 28.3366 3.5 19.5 3.5C10.6634 3.5 3.5 10.6634 3.5 19.5C3.5 28.3366 10.6634 35.5 19.5 35.5C21.756 35.5 23.9021 35.031 25.8486 34.1885C25.6376 35.4194 25.828 36.6667 26.3447 37.7627C24.2148 38.5613 21.9088 39 19.5 39C8.73045 39 0 30.2696 0 19.5C0 8.73045 8.73045 0 19.5 0Z" fill="#F23F3F"/>
<path d="M39.1633 37.653C39.1633 38.544 39.2173 39.624 39.2443 40.839C39.2443 40.866 39.2443 40.866 39.2443 40.893C39.2443 41.838 38.5423 42.27 37.8133 42.27C37.0843 42.27 36.3283 41.811 36.3283 40.839C36.3283 39.894 36.3553 38.787 36.3553 37.68C33.7363 37.707 30.9553 37.707 30.6853 37.707C28.8763 37.707 27.9583 36.816 27.9583 35.628C27.9583 35.007 28.2013 34.278 28.7143 33.549C30.3343 31.254 34.7893 25.017 36.7333 22.317C37.0303 21.885 37.4353 21.723 37.8403 21.723C38.6503 21.723 39.4333 22.398 39.4333 23.262C39.4333 23.586 39.3253 23.937 39.0553 24.288C31.1443 34.575 31.1443 34.602 31.1443 34.791C31.1443 35.115 31.5763 35.115 32.2513 35.115C33.1693 35.115 34.7893 35.061 36.3823 35.034C36.4093 33.954 36.4093 32.928 36.4093 32.118C36.4093 31.524 36.4093 31.038 36.3823 30.687C36.3823 30.66 36.3823 30.606 36.3823 30.579C36.3823 29.634 37.1113 29.121 37.8403 29.121C38.5423 29.121 39.2443 29.607 39.2443 30.66C39.2443 31.929 39.1633 32.955 39.1633 34.953C40.1623 34.926 40.8913 34.899 41.0263 34.899C41.0533 34.899 41.0803 34.899 41.1073 34.899C41.9983 34.899 42.4843 35.547 42.4843 36.222C42.4843 36.897 41.9713 37.599 40.9183 37.626C40.5943 37.626 39.9463 37.653 39.1633 37.653Z" fill="#F23F3F"/>
<path d="M39.4333 23.262C39.4333 22.398 38.6503 21.723 37.8403 21.723C37.4353 21.723 37.0303 21.885 36.7333 22.317C34.7893 25.017 30.3343 31.254 28.7143 33.549C28.2013 34.278 27.9583 35.007 27.9583 35.628C27.9583 36.7417 28.7651 37.594 30.3564 37.6963L30.6853 37.707C30.9569 37.707 33.7372 37.707 36.3553 37.68C36.3553 38.787 36.3283 39.894 36.3283 40.839C36.3283 41.7504 36.9929 42.2108 37.6768 42.2646L37.8133 42.27C38.5423 42.27 39.2443 41.838 39.2443 40.893V40.839C39.2173 39.624 39.1633 38.544 39.1633 37.653C39.9463 37.653 40.5943 37.626 40.9183 37.626C41.9055 37.6007 42.4183 36.9821 42.4785 36.3486L42.4843 36.222C42.4841 35.5893 42.057 34.9799 41.2695 34.9062L41.1073 34.899L41.1074 34.5986C42.1796 34.5987 42.784 35.3973 42.7842 36.2217C42.7842 37.0629 42.1379 37.8947 40.9258 37.9258H40.918C40.7605 37.9258 40.5235 37.9326 40.2197 37.9395C39.9974 37.9444 39.7427 37.946 39.4658 37.9482C39.4754 38.7736 39.5196 39.7369 39.5439 40.832V40.8926C39.5439 41.4466 39.3348 41.8778 38.9961 42.165C38.6647 42.446 38.2335 42.5703 37.8135 42.5703C37.3898 42.5703 36.946 42.4373 36.6035 42.1484C36.254 41.8535 36.0283 41.4106 36.0283 40.8389C36.0283 40.3641 36.0353 39.849 36.042 39.3164C36.0475 38.8803 36.0509 38.4319 36.0527 37.9814C33.5264 38.0054 30.9467 38.0068 30.6855 38.0068C29.7351 38.0068 28.9787 37.773 28.4541 37.3457C27.9233 36.9132 27.6582 36.3051 27.6582 35.6279C27.6582 34.9312 27.9292 34.1427 28.4688 33.376C30.0895 31.08 34.5459 24.8421 36.4902 22.1416C36.848 21.625 37.3475 21.423 37.8398 21.4229C38.7951 21.4229 39.7332 22.2126 39.7334 23.2617L39.7266 23.4111C39.6969 23.7604 39.5618 24.1212 39.293 24.4707C35.3369 29.6149 33.3606 32.1923 32.373 33.5068C31.8776 34.1663 31.6367 34.5007 31.5195 34.6807C31.4946 34.7189 31.479 34.7485 31.4668 34.7695C31.4777 34.7727 31.4909 34.7779 31.5068 34.7812C31.6611 34.8136 31.8996 34.8154 32.251 34.8154L32.2513 35.115L31.7939 35.1104C31.3874 35.0952 31.1443 35.0341 31.1443 34.791C31.1443 34.6493 31.144 34.5984 34.4814 30.2422L39.0553 24.288C39.2914 23.9809 39.4034 23.6737 39.4277 23.3848L39.4333 23.262ZM36.1094 32.1182C36.1094 31.519 36.1089 31.0467 36.083 30.71L36.082 30.6982V30.5791C36.082 29.44 36.9754 28.8215 37.8398 28.8213C38.2584 28.8213 38.6878 28.9659 39.0137 29.2793C39.3433 29.5963 39.5439 30.0633 39.5439 30.6602L39.5312 31.5928C39.5236 31.9003 39.514 32.2107 39.5039 32.542C39.4858 33.135 39.4694 33.7993 39.4658 34.6436C40.2977 34.6199 40.9013 34.5986 41.0264 34.5986L41.0263 34.899L39.1633 34.953C39.1633 33.4544 39.2087 32.5026 39.2314 31.585L39.2443 30.66C39.2443 29.6728 38.6272 29.1842 37.9717 29.127L37.8403 29.121C37.1113 29.121 36.3823 29.634 36.3823 30.579V30.687C36.4093 31.038 36.4093 31.524 36.4093 32.118L36.4062 33.4746C36.4029 33.9674 36.3958 34.4939 36.3823 35.034C34.7893 35.061 33.1693 35.115 32.2513 35.115L32.251 34.8154C33.1111 34.8154 34.5823 34.7685 36.0859 34.7402C36.1063 33.7702 36.1094 32.8562 36.1094 32.1182ZM41.1074 34.5986L41.1073 34.899H41.0263L41.0264 34.5986H41.1074Z" fill="#F23F3F"/>
</svg>
