<svg width="418" height="395" viewBox="0 0 418 395" fill="none" xmlns="http://www.w3.org/2000/svg">
<g filter="url(#filter0_d_14_2)">
<path d="M102.355 41C95.7249 41 89.3661 43.6339 84.6777 48.3223L43.3223 89.6777C38.6339 94.3661 36 100.725 36 107.355V235.645C36 242.275 38.6339 248.634 43.3223 253.322L84.6777 294.678C89.3661 299.366 95.7249 302 102.355 302H200C213.807 302 225 290.807 225 277V66C225 52.1929 213.807 41 200 41H102.355Z" fill="#2EBDF1" stroke="#64D0FF" stroke-width="8"/>
<path d="M294.645 346C301.275 346 307.634 343.366 312.322 338.678L353.678 297.322C358.366 292.634 361 286.275 361 279.645L361 151.355C361 144.725 358.366 138.366 353.678 133.678L312.322 92.3223C307.634 87.6339 301.275 85 294.645 85L197 85C183.193 85 172 96.1929 172 110L172 321C172 334.807 183.193 346 197 346L294.645 346Z" fill="#494949" stroke="#353535" stroke-width="8"/>
<path d="M165.153 41C158.642 41 152.389 43.5395 147.722 48.0785L89.5695 104.638C84.7302 109.345 82 115.809 82 122.559V220.441C82 227.191 84.7302 233.655 89.5695 238.362L147.722 294.921C152.389 299.46 158.642 302 165.153 302H208C221.807 302 233 290.807 233 277V66C233 52.1929 221.807 41 208 41H165.153Z" fill="#494949" stroke="#353535" stroke-width="4"/>
<path d="M231.847 346C238.358 346 244.611 343.46 249.278 338.921L307.43 282.362C312.27 277.655 315 271.191 315 264.441L315 166.559C315 159.809 312.27 153.345 307.43 148.638L249.278 92.0785C244.611 87.5395 238.358 85 231.847 85L189 85C175.193 85 164 96.1929 164 110L164 321C164 334.807 175.193 346 189 346L231.847 346Z" fill="#2ECDF1" stroke="#60E3FD" stroke-width="8"/>
<path opacity="0.9" d="M165.153 41C158.642 41 152.389 43.5395 147.722 48.0785L89.5695 104.638C84.7302 109.345 82 115.809 82 122.559V220.441C82 227.191 84.7302 233.655 89.5695 238.362L147.722 294.921C152.389 299.46 158.642 302 165.153 302H208C221.807 302 233 290.807 233 277V66C233 52.1929 221.807 41 208 41H165.153Z" fill="#494949" stroke="#353535" stroke-width="8"/>
</g>
<defs>
<filter id="filter0_d_14_2" x="19.2" y="28.2" width="358.6" height="338.6" filterUnits="userSpaceOnUse" color-interpolation-filters="sRGB">
<feFlood flood-opacity="0" result="BackgroundImageFix"/>
<feColorMatrix in="SourceAlpha" type="matrix" values="0 0 0 0 0 0 0 0 0 0 0 0 0 0 0 0 0 0 127 0" result="hardAlpha"/>
<feOffset dy="4"/>
<feGaussianBlur stdDeviation="6.4"/>
<feComposite in2="hardAlpha" operator="out"/>
<feColorMatrix type="matrix" values="0 0 0 0 0 0 0 0 0 0 0 0 0 0 0 0 0 0 0.13 0"/>
<feBlend mode="normal" in2="BackgroundImageFix" result="effect1_dropShadow_14_2"/>
<feBlend mode="normal" in="SourceGraphic" in2="effect1_dropShadow_14_2" result="shape"/>
</filter>
</defs>
</svg>
